<?xml version="1.0" encoding="UTF-8"?> <svg xmlns="http://www.w3.org/2000/svg" width="24" height="24" viewBox="0 0 24 24" fill="none"> <path d="M3 9.5L12 4L21 9.5M19 13V19.4C19 19.5591 18.9368 19.7117 18.8243 19.8243C18.7117 19.9368 18.5591 20 18.4 20H5.6C5.44087 20 5.28826 19.9368 5.17574 19.8243C5.06321 19.7117 5 19.5591 5 19.4V13" stroke="#D0AF5C" stroke-width="1.5" stroke-linecap="round" stroke-linejoin="round"></path> <path d="M14 9.846C13 8.923 10.333 8.616 10.333 10.462C10.333 12.308 14 11.385 14 13.23C14 15.075 11 15.076 10 13.845M12 14.702V16M12 9.113V8" stroke="#D0AF5C" stroke-width="1.5" stroke-linecap="round" stroke-linejoin="round"></path> </svg> 