<?xml version="1.0" encoding="UTF-8"?> <svg xmlns="http://www.w3.org/2000/svg" width="15" height="15" viewBox="0 0 15 15" fill="none"> <g clip-path="url(#clip0_6_20)"> <path fill-rule="evenodd" clip-rule="evenodd" d="M4.67099 3.14599C4.57726 3.23975 4.5246 3.36691 4.5246 3.49949C4.5246 3.63207 4.57726 3.75923 4.67099 3.85299L7.14599 6.32799C7.23976 6.42173 7.36691 6.47438 7.49949 6.47438C7.63208 6.47438 7.75923 6.42173 7.85299 6.32799L10.328 3.85299C10.4217 3.75923 10.4744 3.63207 10.4744 3.49949C10.4744 3.36691 10.4217 3.23975 10.328 3.14599L7.85299 0.67099C7.75923 0.577255 7.63208 0.524597 7.49949 0.524597C7.36691 0.524597 7.23976 0.577255 7.14599 0.67099L4.67099 3.14599ZM7.49999 5.26799L5.73199 3.49999L7.49999 1.73199L9.26699 3.49999L7.49999 5.26799ZM8.66999 7.14599C8.57626 7.23975 8.5236 7.36691 8.5236 7.49949C8.5236 7.63207 8.57626 7.75923 8.66999 7.85299L11.145 10.328C11.2388 10.4217 11.3659 10.4744 11.4985 10.4744C11.6311 10.4744 11.7582 10.4217 11.852 10.328L14.327 7.85299C14.4207 7.75923 14.4734 7.63207 14.4734 7.49949C14.4734 7.36691 14.4207 7.23975 14.327 7.14599L11.852 4.67099C11.7582 4.57725 11.6311 4.5246 11.4985 4.5246C11.3659 4.5246 11.2388 4.57725 11.145 4.67099L8.67099 7.14599H8.66999ZM11.5 9.26799L9.73199 7.49999L11.5 5.73199L13.268 7.49999L11.5 9.26799ZM4.66999 11.853C4.57626 11.7592 4.5236 11.6321 4.5236 11.4995C4.5236 11.3669 4.57626 11.2398 4.66999 11.146L7.14499 8.67099C7.23876 8.57725 7.36591 8.5246 7.49849 8.5246C7.63108 8.5246 7.75823 8.57725 7.85199 8.67099L10.327 11.146C10.4207 11.2398 10.4734 11.3669 10.4734 11.4995C10.4734 11.6321 10.4207 11.7592 10.327 11.853L7.85199 14.328C7.75823 14.4217 7.63108 14.4744 7.49849 14.4744C7.36591 14.4744 7.23876 14.4217 7.14499 14.328L4.66999 11.854V11.853ZM5.73099 11.5L7.49999 13.268L9.26699 11.5L7.49999 9.73199L5.73199 11.5H5.73099ZM0.671995 7.14599C0.625431 7.19244 0.588488 7.24761 0.563282 7.30836C0.538076 7.3691 0.525101 7.43422 0.525101 7.49999C0.525101 7.56576 0.538076 7.63088 0.563282 7.69162C0.588488 7.75237 0.625431 7.80754 0.671995 7.85399L3.14599 10.328C3.23976 10.4217 3.36691 10.4744 3.49949 10.4744C3.63208 10.4744 3.75923 10.4217 3.85299 10.328L6.32799 7.85399C6.37456 7.80754 6.4115 7.75237 6.43671 7.69162C6.46191 7.63088 6.47489 7.56576 6.47489 7.49999C6.47489 7.43422 6.46191 7.3691 6.43671 7.30836C6.4115 7.24761 6.37456 7.19244 6.32799 7.14599L3.85299 4.67199C3.75923 4.57825 3.63208 4.5256 3.49949 4.5256C3.36691 4.5256 3.23976 4.57825 3.14599 4.67199L0.670995 7.14599H0.671995ZM3.49999 9.26799L1.73199 7.49999L3.49999 5.73199L5.26699 7.49999L3.49999 9.26799Z" fill="#D0AF5C"></path> </g> <defs> <clipPath id="clip0_6_20"> <rect width="15" height="15" fill="white"></rect> </clipPath> </defs> </svg> 